<?xml version="1.0" encoding="utf-8"?>
<!-- Generator: Adobe Illustrator 24.0.0, SVG Export Plug-In . SVG Version: 6.00 Build 0)  -->
<svg version="1.1" id="Layer_1" xmlns="http://www.w3.org/2000/svg" xmlns:xlink="http://www.w3.org/1999/xlink" x="0px" y="0px"
	 viewBox="0 0 429.8 429.8" enable-background="new 0 0 429.8 429.8" xml:space="preserve">
<path d="M1349.3-379.2c18.9-22,37.4-43.4,56-64.9c19-22.1,38-44.3,57.3-66.2c2-2.2,5.7-3.8,8.7-4c8.3-0.5,16.6-0.2,26.5-0.2
	c-45.3,52.6-89.6,103.9-134.3,155.9c48.3,70.2,96.7,140.5,146,212.1c-3.2,0-5.3,0-7.4,0c-31.3,0-62.5-0.1-93.8,0.1
	c-4.6,0-7.3-1.3-9.9-5.2c-29.9-43.8-60-87.4-90.1-131.1c-1.4-2-2.8-4-4.5-6.5c-1.6,1.8-3,3.2-4.3,4.7
	c-37.6,43.6-75.2,87.1-112.6,130.8c-4.4,5.1-8.7,7.7-15.5,7.2c-7-0.6-14.1-0.1-22.6-0.1c47.5-55.1,94.1-109.1,140.7-163.3
	c-46.8-68-93.4-135.6-140.4-204c2.2-0.3,3.7-0.6,5.2-0.6c32.3,0,64.6,0.1,96.8-0.1c4.1,0,6.2,1.7,8.3,4.8
	c27.9,40.7,55.9,81.3,83.9,122C1345.1-385.2,1347-382.5,1349.3-379.2z M1192.1-490.6c1.9,2.8,3.1,4.5,4.2,6.2
	c69.1,98.7,138.2,197.4,207.4,296c4.4,6.3,7.8,14.9,14,18.1c6.1,3.2,15.1,1,22.9,1.1c8.1,0.1,16.1,0,25.3,0c-2-3-3.2-4.8-4.4-6.6
	c-29.8-42.6-59.6-85.2-89.5-127.7c-42.6-60.8-85.1-121.6-127.8-182.3c-1.4-2-3.7-4.5-5.7-4.5
	C1223.3-490.7,1208.3-490.6,1192.1-490.6z"/>
<g>
	<path d="M26.9,214.4c0-26-0.3-52.1,0.1-78.1c0.3-17.4,3.3-34.5,10.7-50.4c17-36.3,46.9-55.5,85.7-57.8c43.6-2.7,87.3-2.5,131-2.4
		c22,0.1,44.2,0.7,65.8,4.5c44.1,7.7,74.5,40.5,80.5,84.7c2.2,16.3,3.2,32.9,3.3,49.4c0.2,42.6,0.1,85.2-1.1,127.7
		c-0.4,14.2-2.7,29-7.3,42.4c-12.9,38.3-41.1,60.5-80.6,65.7c-26.2,3.5-53,3.4-79.6,3.7c-32.7,0.4-65.4-0.4-98-1
		c-15.6-0.3-31.1-2.7-45.7-8.5c-36-14.4-56.4-41.6-62.3-79.3c-2.7-17-2.9-34.4-3.5-51.7c-0.6-16.3-0.1-32.7-0.1-49
		C26.2,214.4,26.5,214.4,26.9,214.4z M61.1,214.6c-0.6,0-1.1,0-1.7,0c0.6,27.2,1.2,54.3,1.8,81.5c0.1,3,0.6,6,1,9.1
		c3.3,30.4,20.4,51.7,48.5,59.5c8.3,2.3,17.2,3.7,25.8,3.9c37,0.8,74.1,1.2,111.1,1.2c19.4,0,38.8-0.6,58-2.3
		c30.3-2.7,51.7-20.5,59.3-48.6c2.3-8.4,3.7-17.2,3.8-25.8c0.7-44.8,1-89.7,1-134.5c0-11.6-0.9-23.2-2.1-34.7
		c-3.2-30.1-20.6-51.4-48.4-59c-8.4-2.3-17.2-3.7-25.8-3.9c-37.4-0.8-74.8-1.2-112.3-1.2c-19,0-38,0.6-56.9,2.3
		c-30,2.7-51.3,20.2-59.1,48.1c-2.3,8.3-3.8,17.2-4,25.8C60.7,162.2,61.1,188.4,61.1,214.6z"/>
	<path d="M214.8,311.9c-53.7-0.1-96.9-43.4-96.9-97.2c0-54,43.4-97.2,97.6-97c53.7,0.2,96.8,43.6,96.6,97.4
		C312,268.9,268.6,312,214.8,311.9z M215,151.8c-35,0-63,28-63,63c0,35,28,63,62.9,63c35,0,63-28,63-63
		C278,179.8,250,151.8,215,151.8z"/>
	<path d="M316.2,136.3c-12.8,0.1-22.7-9.8-22.7-22.6c0-12.7,10.1-22.8,22.7-22.7c12.4,0.1,22.3,10,22.5,22.4
		C338.9,126,328.9,136.2,316.2,136.3z"/>
</g>
<path d="M887-388.6h64.9c-2.8,22.1-5.7,43.6-8.5,65.6h-56.2v185.3h-68.4v-185h-56v-65.7h56.3c0-2.3,0-4.1,0-5.9
	c0.2-17.4-0.2-34.9,0.7-52.3c1.2-23,9-43.3,27.1-58.6c13.8-11.7,30.3-17.6,48.1-18c18.6-0.5,37.3,1,55.9,1.8c1.1,0,3.1,2,3.2,3.1
	c0.2,18.4,0.1,36.7,0.1,55.6c-1.9,0.1-3.5,0.2-5.1,0.2c-11.6,0.2-23.3,0.1-34.9,0.5c-17.2,0.7-25.9,8.5-26.8,25.5
	C886.3-420.7,887-404.9,887-388.6z"/>
<path d="M457.6-146.4c-51,0-102,0-153,0c-20.4,0-30.8-10.4-30.8-30.7c0-102.2,0-204.5,0-306.7c0-20,10.3-30.7,30.3-30.7
	c102.7-0.1,205.4-0.1,308,0c19.3,0,29.9,11,29.9,30.5c0,102.5,0,204.9,0,307.4c0,19.4-10.8,30.2-30.1,30.2
	C560.5-146.4,509.1-146.4,457.6-146.4z M417.7-376.1c0,58.9,0,116.9,0,174.8c18.2,0,35.9,0,54,0c0-28.1-0.2-55.7,0.1-83.2
	c0.1-9,0.7-18.2,2.8-26.8c3.6-14.9,15.1-22.1,31.4-21.5c14.3,0.6,22.3,8.1,25.2,23.8c0.7,3.6,1.2,7.3,1.2,11
	c0.2,29.7,0.2,59.3,0.3,89c0,2.5,0,5,0,7.9c18.4,0,36.2,0,54.7,0c0-2.7,0-5.2,0-7.7c0-28.3,0.2-56.5-0.1-84.8
	c-0.1-11.6-0.6-23.2-2.2-34.6c-2.9-19.8-10.2-37.6-30-46.2c-25.7-11.1-63.4-11.1-83.8,20c-0.2,0.2-0.8,0.2-2,0.4c0-7.4,0-14.7,0-22
	C451.7-376.1,434.9-376.1,417.7-376.1z M328.8-376.1c0,58.9,0,116.9,0,174.8c18.3,0,36,0,53.6,0c0-58.5,0-116.6,0-174.8
	C364.3-376.1,346.8-376.1,328.8-376.1z M355.7-400.6c17.3,0,31.4-13.9,31.7-31.2c0.2-17.5-14.1-31.9-31.7-31.9
	c-17.3,0-31.5,14-31.7,31.2C323.8-415,338.1-400.6,355.7-400.6z"/>
<line fill="none" x1="65.8" y1="-382.6" x2="65.8" y2="-390.1"/>
<polyline fill="none" points="46.3,-389.6 46.3,-383.5 46.3,-382.6 "/>
</svg>
