<?xml version="1.0" encoding="utf-8"?>
<!-- Generator: Adobe Illustrator 24.0.0, SVG Export Plug-In . SVG Version: 6.00 Build 0)  -->
<svg version="1.1" id="Layer_1" xmlns="http://www.w3.org/2000/svg" xmlns:xlink="http://www.w3.org/1999/xlink" x="0px" y="0px"
	 viewBox="0 0 283.46 283.46" style="enable-background:new 0 0 283.46 283.46;" xml:space="preserve">
<style type="text/css">
	.st0{fill-rule:evenodd;clip-rule:evenodd;fill:#007EAA;}
	.st1{fill-rule:evenodd;clip-rule:evenodd;fill:#27234D;}
	.st2{fill:#B3B3B3;}
</style>
<g>
	<g>
		<polygon class="st0" points="232.44,48.81 216.58,76.62 188.94,76.82 163.6,120.71 147.59,92.99 156.64,77.31 156.73,77.15 
			138.54,77.34 122.15,49.26 		"/>
		<polygon class="st1" points="128.61,65.19 135.61,77.31 188.17,168.35 156.16,168.35 119.6,105.04 83.05,168.35 51.03,168.35 
			119.6,49.58 		"/>
		<g>
			<polygon class="st0" points="128.65,125.79 144.66,153.52 136.1,168.35 104.08,168.35 			"/>
			<polygon class="st0" points="128.65,125.79 144.66,153.52 136.1,168.35 104.08,168.35 			"/>
		</g>
	</g>
	<g>
		<path class="st2" d="M33.25,216.55l9.1-28.85h3.7l9.1,28.85H52.5l-8.17-26.64h-0.24l-8.17,26.64H33.25z M36.79,208.83v-2.48h14.63
			v2.48H36.79z"/>
		<path class="st2" d="M66.92,216.96c-1.58,0-2.93-0.05-4.03-0.14c-1.1-0.09-2.1-0.25-3-0.47l0.33-2.58
			c1.4,0.22,2.62,0.38,3.68,0.49c1.06,0.11,2.07,0.16,3.03,0.16c2.65,0,4.58-0.28,5.78-0.83c1.2-0.55,1.8-1.45,1.8-2.68
			c0-0.85-0.28-1.55-0.83-2.09c-0.56-0.54-1.44-0.96-2.66-1.26l-4.84-1.22c-2.1-0.53-3.62-1.23-4.55-2.11
			c-0.93-0.88-1.4-2.03-1.4-3.45c0-2.17,0.88-3.74,2.63-4.7c1.75-0.97,4.59-1.45,8.5-1.45c0.95,0,1.83,0.03,2.65,0.09
			c0.82,0.06,1.72,0.17,2.71,0.31l-0.3,2.42c-1.1-0.11-2.06-0.18-2.88-0.22c-0.82-0.04-1.59-0.06-2.31-0.06
			c-2.89,0-4.98,0.28-6.28,0.84c-1.3,0.56-1.95,1.47-1.95,2.71c0,0.75,0.32,1.38,0.98,1.89s1.71,0.95,3.17,1.3l3.86,0.93
			c2.21,0.54,3.81,1.29,4.8,2.24c0.99,0.95,1.48,2.22,1.48,3.82c0,2.13-0.82,3.67-2.45,4.63S70.56,216.96,66.92,216.96z"/>
		<path class="st2" d="M82.53,197.41v-2.4h18.85v2.4H82.53z M88.72,206.39v-17.88h2.72v17.88H88.72z M96.87,216.96
			c-2.78,0-4.83-0.71-6.16-2.13c-1.33-1.42-1.99-3.6-1.99-6.54v-3.51h2.72v3.45c0,2.1,0.47,3.66,1.42,4.67
			c0.95,1.02,2.42,1.52,4.41,1.52c0.79,0,1.55-0.04,2.29-0.11c0.74-0.07,1.51-0.17,2.33-0.29l0.3,2.46
			c-0.89,0.16-1.77,0.28-2.62,0.37C98.72,216.92,97.82,216.96,96.87,216.96z"/>
		<path class="st2" d="M107.11,216.55v-2.4h14.06v2.4H107.11z M107.92,197.41v-2.4H114l0.12,2.4H107.92z M112.37,216.55v-21.54h2.17
			l0.55,6.18v15.36H112.37z M115.1,207.29l-1.26-6.75h1.5c0.49-3.96,2.6-5.93,6.34-5.93c2.3,0,3.97,0.64,5.01,1.91
			s1.55,3.33,1.55,6.18h-2.72c0-1.99-0.33-3.43-0.99-4.31s-1.72-1.32-3.2-1.32c-2.1,0-3.66,0.89-4.69,2.66
			S115.1,204.02,115.1,207.29z"/>
		<path class="st2" d="M141.73,216.96c-2.87,0-5.11-0.98-6.7-2.93c-1.6-1.95-2.4-4.7-2.4-8.25c0-3.56,0.8-6.32,2.4-8.26
			c1.6-1.94,3.83-2.92,6.7-2.92c2.89,0,5.12,0.97,6.72,2.92c1.59,1.94,2.39,4.7,2.39,8.26c0,3.55-0.8,6.3-2.39,8.25
			C146.86,215.98,144.62,216.96,141.73,216.96z M141.73,214.42c2,0,3.56-0.75,4.66-2.25c1.1-1.5,1.66-3.63,1.66-6.38
			c0-2.76-0.55-4.89-1.66-6.39c-1.1-1.5-2.66-2.25-4.66-2.25c-2,0-3.56,0.75-4.66,2.25c-1.1,1.5-1.66,3.63-1.66,6.39
			c0,2.75,0.55,4.88,1.66,6.38C138.17,213.67,139.73,214.42,141.73,214.42z"/>
		<path class="st2" d="M155.87,190.18v-2.48h20.48v2.48H155.87z M164.83,216.55V187.7h2.56v28.85H164.83z"/>
		<path class="st2" d="M192.59,216.96c-3.56,0-6.32-0.99-8.27-2.97c-1.95-1.98-2.93-4.78-2.93-8.41c0-3.48,0.82-6.18,2.46-8.1
			s3.96-2.88,6.95-2.88c2.79,0,4.95,0.87,6.49,2.6c1.54,1.73,2.31,4.2,2.31,7.4c0,0.84-0.04,1.54-0.12,2.11h-15.89v-2.32H197
			c0-2.33-0.54-4.13-1.62-5.39c-1.08-1.27-2.59-1.9-4.54-1.9c-2.17,0-3.85,0.74-5.04,2.21c-1.19,1.48-1.79,3.55-1.79,6.22
			c0,2.84,0.79,5.04,2.37,6.59s3.81,2.33,6.7,2.33c0.8,0,1.64-0.05,2.53-0.15c0.89-0.1,1.74-0.24,2.55-0.42l0.39,2.5
			c-0.93,0.2-1.92,0.35-2.96,0.44S193.55,216.96,192.59,216.96z"/>
		<path class="st2" d="M216.95,216.96c-3.63,0-6.4-0.96-8.31-2.86c-1.91-1.91-2.87-4.69-2.87-8.35c0-3.52,0.92-6.26,2.75-8.21
			c1.83-1.95,4.45-2.93,7.85-2.93c2.02,0,3.75,0.39,5.19,1.17c1.44,0.78,2.47,1.88,3.08,3.3l-2.24,1.54
			c-0.69-1.23-1.57-2.12-2.65-2.66s-2.26-0.81-3.54-0.81c-2.42,0-4.31,0.73-5.67,2.18s-2.03,3.53-2.03,6.21
			c0,2.91,0.73,5.12,2.21,6.62c1.47,1.5,3.62,2.25,6.45,2.25c1.07,0,2.14-0.05,3.2-0.16s2.1-0.26,3.1-0.47l0.33,2.5
			c-1.11,0.27-2.25,0.45-3.41,0.54C219.22,216.91,218.07,216.96,216.95,216.96z"/>
		<path class="st2" d="M230.81,216.55v-30.48h2.7v30.48H230.81z M245.01,216.55v-14.08c0-1.72-0.45-3.05-1.36-3.99
			c-0.91-0.94-2.17-1.41-3.78-1.41c-4.24,0-6.36,2.44-6.36,7.31l-1.28-5.46h1.52c0.31-1.45,0.99-2.53,2.03-3.24
			c1.04-0.71,2.48-1.07,4.31-1.07c2.42,0,4.3,0.69,5.63,2.07c1.33,1.38,1.99,3.33,1.99,5.85v14.02H245.01z"/>
	</g>
</g>
</svg>
